General                          : ChattChitto RG - Movies Release
==========
Complete name                    : Zombieland 2009 BDRip.mp4
Format                           : MPEG-4
Format profile                   : Base Media
Codec ID                         : isom
File size                        : 1.63 GiB
Duration                         : 1h 27mn
Overall bit rate                 : 2 658 Kbps
Encoded date                     : UTC 2010-02-16 13:25:23

Video
==========
ID                               : 1
Format                           : AVC
Format/Info                      : Advanced Video Codec
Format profile                   : High@L3.1
Format settings, CABAC           : Yes
Format settings, ReFrames        : 3 frames
Codec ID                         : avc1
Codec ID/Info                    : Advanced Video Coding
Duration                         : 1h 27mn
Bit rate mode                    : Variable
Bit rate                         : 2 300 Kbps
Maximum bit rate                 : 19.6 Mbps
Width                            : 1 280 pixels
Height                           : 528 pixels
Display aspect ratio             : 2.40:1
Frame rate mode                  : Constant
Frame rate                       : 23.976 fps
Resolution                       : 8 bits
Colorimetry                      : 4:2:0
Scan type                        : Progressive
Bits/(Pixel*Frame)               : 0.142
Stream size                      : 1.41 GiB (87%)
Writing library                  : x264 
Encoded date                     : UTC 2010-02-16 13:18:18

Audio
==========
ID                               : 2
Format                           : AAC
Format/Info                      : Advanced Audio Codec
Format version                   : Version 4
Format profile                   : LC
Format settings, SBR             : No
Codec ID                         : 40
Duration                         : 1h 27mn
Bit rate mode                    : Variable
Bit rate                         : 352.8 Kbps
Maximum bit rate                 : 451 Kbps
Channel(s)                       : 6 channels
Channel positions                : Front: L C R, Rear: L R, LFE
Sampling rate                    : 48.0 KHz
Stream size                      : 222 MiB (13%)
Encoded date                     : UTC 2010-02-16 13:26:04

Subtitles                        : English/French [.srt]



----------------------------------------------------
IMDB Link: http://www.imdb.com/title/tt1156398/
----------------------------------------------------


Screen Shots:
============== 
http://bayimg.com/IaKEDaACI 
http://bayimg.com/iAkEbaAcI 
http://bayimg.com/HAkEPaacI 
http://bayimg.com/hAKeOaaCi 
http://bayimg.com/HakeLaaci



Plot:
======
Two men have found a way to survive a world overrun by zombies. Columbus is a big wuss --  but when you're afraid of being eaten by zombies, fear can keep you alive. Tallahassee is an AK-totin', zombie-slayin' badass whose single determination is to get the last Twinkie on earth. As they join forces with Wichita and Little Rock, who have also found unique ways to survive the zombie mayhem, they will have to determine which is worse: relying on each other or succumbing to the zombies.


Release Info:
==============
original name .... : Zombieland 2009 BDRip.mp4                                
ripper.............: Recalled2Life (R2L)
encoder............: Recalled2Life (R2L)
video codec........: H264/.MP4                   
video bitrate......: 2300 Kbps                           
audio codec........: ACC-LC	                                        
aspect ratio.......: 2.40:1                              
resolution.........: 1280 x 528                             
genre..............: Action | Comedy | Horror         
runtime............: 1h 27mn
language...........: English                              
subtitles..........: English/French [.srt]
2ch Audio..........: 2ch Audio for XBox Viewers


Source:
========
Zombieland 2009 Blue-Ray 1080p MPEG-4 AVC/DTS-HD Master Audio 5.1 [21.8GB]


Notes:
=======
ChattChitto RG Encourages Burning this Film with ConvertXtoDVD.
Enhanced for your viewing pleasure ;)